<svg width="280" height="280" viewBox="0 0 280 280" fill="none" xmlns="http://www.w3.org/2000/svg">
<rect width="280" height="280" rx="140" fill="#20201E"/>
<path d="M207.582 145.542C211.268 145.542 213.111 145.542 213.95 146.252C214.71 146.895 215.102 147.875 214.994 148.865C214.876 149.958 213.54 151.228 210.869 153.768L147.522 214.007C147.017 214.487 146.764 214.727 146.474 214.899C146.205 215.059 145.914 215.176 145.609 215.245C145.28 215.32 144.931 215.32 144.235 215.32H82.9795C79.2814 215.32 77.4324 215.32 76.5929 214.608C75.8322 213.963 75.4417 212.983 75.5511 211.991C75.6718 210.897 77.015 209.627 79.7014 207.085L143.376 146.846C143.88 146.369 144.132 146.131 144.422 145.959C144.69 145.801 144.981 145.685 145.284 145.616C145.613 145.542 145.96 145.542 146.654 145.542H207.582Z" fill="#0ABD89"/>
<path d="M131.774 65.7C132.262 65.2351 132.506 65.0027 132.785 64.8336C133.066 64.6637 133.373 64.5411 133.693 64.4705C134.012 64.4001 134.349 64.4001 135.023 64.4001H196.363C199.918 64.4001 201.696 64.4001 202.52 65.0644C203.335 65.7212 203.748 66.7551 203.611 67.7926C203.473 68.8421 202.186 70.0682 199.612 72.5203L136.562 132.588C136.074 133.052 135.83 133.285 135.55 133.454C135.27 133.624 134.963 133.747 134.643 133.817C134.324 133.887 133.987 133.887 133.313 133.887H71.9725C68.4174 133.887 66.6399 133.887 65.8158 133.223C65.001 132.566 64.5873 131.532 64.7242 130.495C64.8627 129.446 66.1497 128.219 68.7236 125.767L131.774 65.7Z" fill="#BFFC3C"/>
</svg>
