<svg width="42" height="42" viewBox="0 0 42 42" fill="none" xmlns="http://www.w3.org/2000/svg">
<path d="M42 21C42 9.40202 32.598 0 21 0C9.40202 0 0 9.40202 0 21C0 32.598 9.40202 42 21 42C32.598 42 42 32.598 42 21Z" fill="#20201E"/>
<path d="M31.1373 21.8313C31.6902 21.8313 31.9666 21.8313 32.0925 21.9378C32.2065 22.0343 32.2653 22.1813 32.2491 22.3298C32.2314 22.4937 32.031 22.6842 31.6303 23.0652L22.1283 32.1011C22.0525 32.1731 22.0146 32.2091 21.9711 32.2349C21.9307 32.2589 21.8871 32.2764 21.8413 32.2868C21.792 32.298 21.7396 32.298 21.6352 32.298H12.4469C11.8922 32.298 11.6149 32.298 11.4889 32.1912C11.3748 32.0945 11.3163 31.9475 11.3327 31.7987C11.3508 31.6346 11.5522 31.4441 11.9552 31.0628L21.5064 22.0269C21.582 21.9554 21.6198 21.9197 21.6633 21.8939C21.7035 21.8702 21.7471 21.8528 21.7926 21.8424C21.8419 21.8313 21.894 21.8313 21.9981 21.8313H31.1373Z" fill="#0ABD89"/>
<path d="M19.7661 9.855C19.8393 9.78527 19.8759 9.75041 19.9177 9.72504C19.9599 9.69956 20.0059 9.68117 20.0539 9.67058C20.1018 9.66002 20.1523 9.66002 20.2534 9.66002H29.4544C29.9877 9.66002 30.2544 9.66002 30.378 9.75966C30.5002 9.85818 30.5622 10.0133 30.5416 10.1689C30.5209 10.3263 30.3279 10.5102 29.9418 10.878L20.4843 19.8882C20.4111 19.9578 20.3745 19.9927 20.3325 20.0181C20.2905 20.0436 20.2444 20.0621 20.1964 20.0726C20.1486 20.0831 20.098 20.083 19.9969 20.083H10.7959C10.2626 20.083 9.99599 20.0831 9.87237 19.9835C9.75015 19.8849 9.6881 19.7298 9.70863 19.5742C9.72941 19.4169 9.92246 19.2329 10.3085 18.8651L19.7661 9.855Z" fill="#BFFC3C"/>
</svg>
